<?xml version="1.0" encoding="utf-8"?>
<!-- Svg Vector Icons : http://www.onlinewebfonts.com/icon -->
<!DOCTYPE svg PUBLIC "-//W3C//DTD SVG 1.1//EN" "http://www.w3.org/Graphics/SVG/1.1/DTD/svg11.dtd">
<svg version="1.1" xmlns="http://www.w3.org/2000/svg" xmlns:xlink="http://www.w3.org/1999/xlink" x="0px" y="0px" viewBox="0 0 256 256" enable-background="new 0 0 256 256" xml:space="preserve">
<metadata> Svg Vector Icons : http://www.onlinewebfonts.com/icon </metadata>
<g><g><path fill="#000000" d="M229.1,237.6H26.9c-9.3,0-16.9-7.5-16.9-16.9V119.6c0-9.3,7.5-16.9,16.9-16.9c9.3,0,16.9,7.5,16.9,16.9v84.3h168.6v-84.3c0-9.3,7.5-16.9,16.9-16.9c9.3,0,16.9,7.5,16.9,16.9v101.1C246,230,238.5,237.6,229.1,237.6z M60.6,102.7h50.6V35.3c0-9.3,7.5-16.9,16.9-16.9c9.3,0,16.9,7.5,16.9,16.9v67.4h50.6L128,170.1L60.6,102.7z"/></g></g>
</svg>