<?xml version="1.0" encoding="UTF-8" standalone="no"?>
<!-- Created with Inkscape (http://www.inkscape.org/) -->

<svg
   xmlns:dc="http://purl.org/dc/elements/1.1/"
   xmlns:cc="http://creativecommons.org/ns#"
   xmlns:rdf="http://www.w3.org/1999/02/22-rdf-syntax-ns#"
   xmlns:svg="http://www.w3.org/2000/svg"
   xmlns="http://www.w3.org/2000/svg"
   xmlns:sodipodi="http://sodipodi.sourceforge.net/DTD/sodipodi-0.dtd"
   xmlns:inkscape="http://www.inkscape.org/namespaces/inkscape"
   width="80"
   height="24"
   viewBox="0 0 21.166667 6.3500002"
   version="1.1"
   id="svg8"
   sodipodi:docname="drawing-1.svg"
   inkscape:version="0.92.1 r15371"
   inkscape:export-filename="/home/kostas/Desktop/sddd.png"
   inkscape:export-xdpi="90"
   inkscape:export-ydpi="90">
  <defs
     id="defs2" />
  <sodipodi:namedview
     id="base"
     pagecolor="#ffffff"
     bordercolor="#666666"
     borderopacity="1.0"
     inkscape:pageopacity="0.0"
     inkscape:pageshadow="2"
     inkscape:zoom="5.6"
     inkscape:cx="59.318955"
     inkscape:cy="8.7730072"
     inkscape:document-units="px"
     inkscape:current-layer="layer1"
     showgrid="false"
     units="px"
     inkscape:snap-page="true"
     inkscape:window-width="1366"
     inkscape:window-height="709"
     inkscape:window-x="0"
     inkscape:window-y="0"
     inkscape:window-maximized="1"
     fit-margin-top="0"
     fit-margin-left="0"
     fit-margin-right="0"
     fit-margin-bottom="0" />
  <metadata
     id="metadata5">
    <rdf:RDF>
      <cc:Work
         rdf:about="">
        <dc:format>image/svg+xml</dc:format>
        <dc:type
           rdf:resource="http://purl.org/dc/dcmitype/StillImage" />
        <dc:title />
      </cc:Work>
    </rdf:RDF>
  </metadata>
  <g
     inkscape:label="Layer 1"
     inkscape:groupmode="layer"
     id="layer1"
     transform="translate(-1.0490417e-5,-290.64998)">
    <path
       style="fill:#6e91b4;fill-opacity:1;stroke:none;stroke-width:1.10163832;stroke-linecap:butt;stroke-linejoin:bevel;stroke-miterlimit:4;stroke-dasharray:none;stroke-dashoffset:0;stroke-opacity:1"
       d="m 3.1752109,290.64999 c 1.7589485,0 3.1749973,1.41605 3.1749973,3.175 0,1.75895 -1.4160488,3.175 -3.1749973,3.175 -1.7589485,0 -3.17499734728,-1.41605 -3.17499734728,-3.175 0,-1.75895 1.41604884728,-3.175 3.17499734728,-3.175 z"
       id="rect4522" />
    <path
       inkscape:connector-curvature="0"
       id="rect4638"
       d="m 2.9579697,291.79823 v 1.80971 H 1.1482609 v 0.43408 h 1.8097088 v 1.80971 h 0.4345988 v -1.80971 h 1.8091917 v -0.43408 H 3.3925685 v -1.80971 z"
       style="fill:#eff6fc;fill-opacity:1;stroke:#1a1a1a;stroke-width:0.23639813;stroke-linecap:butt;stroke-linejoin:bevel;stroke-miterlimit:4;stroke-dasharray:none;stroke-dashoffset:0;stroke-opacity:1" />
    <path
       style="fill:#eff6fc;fill-opacity:1;stroke:none;stroke-width:0.89347315;stroke-linecap:butt;stroke-linejoin:bevel;stroke-miterlimit:4;stroke-dasharray:none;stroke-dashoffset:0;stroke-opacity:1"
       d="M 11.179688 4.3398438 L 11.179688 11.179688 L 4.3398438 11.179688 L 4.3398438 12.820312 L 11.179688 12.820312 L 11.179688 19.660156 L 12.822266 19.660156 L 12.822266 12.820312 L 19.660156 12.820312 L 19.660156 11.179688 L 12.822266 11.179688 L 12.822266 4.3398438 L 11.179688 4.3398438 z "
       transform="matrix(0.26458334,0,0,0.26458334,1.0490417e-5,290.64998)"
       id="rect4489" />
    <path
       style="color:#000000;font-style:normal;font-variant:normal;font-weight:normal;font-stretch:normal;font-size:medium;line-height:normal;font-family:sans-serif;font-variant-ligatures:normal;font-variant-position:normal;font-variant-caps:normal;font-variant-numeric:normal;font-variant-alternates:normal;font-feature-settings:normal;text-indent:0;text-align:start;text-decoration:none;text-decoration-line:none;text-decoration-style:solid;text-decoration-color:#000000;letter-spacing:normal;word-spacing:normal;text-transform:none;writing-mode:lr-tb;direction:ltr;text-orientation:mixed;dominant-baseline:auto;baseline-shift:baseline;text-anchor:start;white-space:normal;shape-padding:0;clip-rule:nonzero;display:inline;overflow:visible;visibility:visible;opacity:1;isolation:auto;mix-blend-mode:normal;color-interpolation:sRGB;color-interpolation-filters:linearRGB;solid-color:#000000;solid-opacity:1;vector-effect:none;fill:#333333;fill-opacity:1;fill-rule:nonzero;stroke:none;stroke-width:0.22691974;stroke-linecap:butt;stroke-linejoin:bevel;stroke-miterlimit:4;stroke-dasharray:none;stroke-dashoffset:0;stroke-opacity:1;color-rendering:auto;image-rendering:auto;shape-rendering:auto;text-rendering:auto;enable-background:accumulate"
       d="m 3.1759451,290.6502 c -1.7565774,0 -3.17593460958,1.41748 -3.17593460958,3.17406 0,1.75658 1.41935720958,3.17593 3.17593460958,3.17593 1.7565775,0 3.17406,-1.41935 3.17406,-3.17593 0,-1.75658 -1.4174825,-3.17406 -3.17406,-3.17406 z m 0,0.25497 c 1.6202686,0 2.9190853,1.29882 2.9190853,2.91909 0,1.62027 -1.2988167,2.92096 -2.9190853,2.92096 -1.6202684,0 -2.92095993,-1.30069 -2.92095993,-2.92096 0,-1.62027 1.30069153,-2.91909 2.92095993,-2.91909 z"
       id="rect4534"
       inkscape:connector-curvature="0" />
    <path
       style="fill:#ffb794;fill-opacity:1;stroke:none;stroke-width:1.10163832;stroke-linecap:butt;stroke-linejoin:bevel;stroke-miterlimit:4;stroke-dasharray:none;stroke-dashoffset:0;stroke-opacity:1"
       d="m 10.583344,290.64999 c 1.758949,0 3.174997,1.41605 3.174997,3.175 0,1.75895 -1.416048,3.175 -3.174997,3.175 -1.7589485,0 -3.1749973,-1.41605 -3.1749973,-3.175 0,-1.75895 1.4160488,-3.175 3.1749973,-3.175 z"
       id="rect4501" />
    <path
       style="fill:#000000;fill-opacity:1;stroke:#000000;stroke-width:0.23639812;stroke-linecap:butt;stroke-linejoin:bevel;stroke-miterlimit:4;stroke-dasharray:none;stroke-dashoffset:0;stroke-opacity:1"
       d="m 8.5565901,293.60782 h 4.0535089 v 0.4343 H 8.5565901 Z"
       id="rect4663" />
    <path
       style="fill:#fff6f1;fill-opacity:1;stroke:none;stroke-width:0.23639812;stroke-linecap:butt;stroke-linejoin:bevel;stroke-miterlimit:4;stroke-dasharray:none;stroke-dashoffset:0;stroke-opacity:1"
       d="m 8.5565901,293.60782 h 4.0535089 v 0.4343 H 8.5565901 Z"
       id="rect4543" />
    <path
       inkscape:connector-curvature="0"
       id="path4555"
       d="m 10.584282,290.65 c -1.7565777,0 -3.175935,1.41748 -3.175935,3.17406 0,1.75658 1.4193573,3.17593 3.175935,3.17593 1.756577,0 3.174059,-1.41935 3.174059,-3.17593 0,-1.75658 -1.417482,-3.17406 -3.174059,-3.17406 z m 0,0.25497 c 1.620268,0 2.919085,1.29882 2.919085,2.91909 0,1.62027 -1.298817,2.92096 -2.919085,2.92096 -1.6202688,0 -2.9209603,-1.30069 -2.9209603,-2.92096 0,-1.62027 1.3006915,-2.91909 2.9209603,-2.91909 z"
       style="color:#000000;font-style:normal;font-variant:normal;font-weight:normal;font-stretch:normal;font-size:medium;line-height:normal;font-family:sans-serif;font-variant-ligatures:normal;font-variant-position:normal;font-variant-caps:normal;font-variant-numeric:normal;font-variant-alternates:normal;font-feature-settings:normal;text-indent:0;text-align:start;text-decoration:none;text-decoration-line:none;text-decoration-style:solid;text-decoration-color:#000000;letter-spacing:normal;word-spacing:normal;text-transform:none;writing-mode:lr-tb;direction:ltr;text-orientation:mixed;dominant-baseline:auto;baseline-shift:baseline;text-anchor:start;white-space:normal;shape-padding:0;clip-rule:nonzero;display:inline;overflow:visible;visibility:visible;opacity:1;isolation:auto;mix-blend-mode:normal;color-interpolation:sRGB;color-interpolation-filters:linearRGB;solid-color:#000000;solid-opacity:1;vector-effect:none;fill:#333333;fill-opacity:1;fill-rule:nonzero;stroke:none;stroke-width:0.22691974;stroke-linecap:butt;stroke-linejoin:bevel;stroke-miterlimit:4;stroke-dasharray:none;stroke-dashoffset:0;stroke-opacity:1;color-rendering:auto;image-rendering:auto;shape-rendering:auto;text-rendering:auto;enable-background:accumulate" />
    <path
       inkscape:connector-curvature="0"
       id="rect4490"
       d="m 17.99168,290.64999 c 1.758949,0 3.174997,1.41605 3.174997,3.175 0,1.75895 -1.416048,3.175 -3.174997,3.175 -1.758948,0 -3.174997,-1.41605 -3.174997,-3.175 0,-1.75895 1.416049,-3.175 3.174997,-3.175 z"
       style="opacity:1;vector-effect:none;fill:#6e91b4;fill-opacity:1;stroke:none;stroke-width:1.10163832;stroke-linecap:butt;stroke-linejoin:bevel;stroke-miterlimit:4;stroke-dasharray:none;stroke-dashoffset:0;stroke-opacity:1" />
    <path
       inkscape:connector-curvature="0"
       id="rect4667"
       d="m 16.712169,292.23851 -0.306958,0.30696 1.279509,1.27951 -1.279509,1.27951 0.306958,0.30696 1.279509,-1.27951 1.279508,1.27951 0.306958,-0.30696 -1.279508,-1.27951 1.279508,-1.27951 -0.306958,-0.30696 -1.279508,1.27951 z"
       style="vector-effect:none;fill:#eff6fc;fill-opacity:1;stroke:#000000;stroke-width:0.23639812;stroke-linecap:butt;stroke-linejoin:bevel;stroke-miterlimit:4;stroke-dasharray:none;stroke-dashoffset:0;stroke-opacity:1" />
    <path
       inkscape:connector-curvature="0"
       id="rect4492"
       d="m 16.712169,292.23851 -0.306958,0.30696 1.279509,1.27951 -1.279509,1.27951 0.306958,0.30696 1.279509,-1.27951 1.279508,1.27951 0.306958,-0.30696 -1.279508,-1.27951 1.279508,-1.27951 -0.306958,-0.30696 -1.279508,1.27951 z"
       style="vector-effect:none;fill:#eff6fc;fill-opacity:1;stroke:none;stroke-width:0.23639812;stroke-linecap:butt;stroke-linejoin:bevel;stroke-miterlimit:4;stroke-dasharray:none;stroke-dashoffset:0;stroke-opacity:1" />
    <path
       style="color:#000000;font-style:normal;font-variant:normal;font-weight:normal;font-stretch:normal;font-size:medium;line-height:normal;font-family:sans-serif;font-variant-ligatures:normal;font-variant-position:normal;font-variant-caps:normal;font-variant-numeric:normal;font-variant-alternates:normal;font-feature-settings:normal;text-indent:0;text-align:start;text-decoration:none;text-decoration-line:none;text-decoration-style:solid;text-decoration-color:#000000;letter-spacing:normal;word-spacing:normal;text-transform:none;writing-mode:lr-tb;direction:ltr;text-orientation:mixed;dominant-baseline:auto;baseline-shift:baseline;text-anchor:start;white-space:normal;shape-padding:0;clip-rule:nonzero;display:inline;overflow:visible;visibility:visible;opacity:1;isolation:auto;mix-blend-mode:normal;color-interpolation:sRGB;color-interpolation-filters:linearRGB;solid-color:#000000;solid-opacity:1;vector-effect:none;fill:#333333;fill-opacity:1;fill-rule:nonzero;stroke:none;stroke-width:0.22691974;stroke-linecap:butt;stroke-linejoin:bevel;stroke-miterlimit:4;stroke-dasharray:none;stroke-dashoffset:0;stroke-opacity:1;color-rendering:auto;image-rendering:auto;shape-rendering:auto;text-rendering:auto;enable-background:accumulate"
       d="m 17.992618,290.64999 c -1.756578,0 -3.175935,1.41749 -3.175935,3.17407 0,1.75657 1.419357,3.17593 3.175935,3.17593 1.756577,0 3.174059,-1.41936 3.174059,-3.17593 0,-1.75658 -1.417482,-3.17407 -3.174059,-3.17407 z m 0,0.25497 c 1.620268,0 2.919085,1.29882 2.919085,2.9191 0,1.62027 -1.298817,2.92096 -2.919085,2.92096 -1.620269,0 -2.920961,-1.30069 -2.920961,-2.92096 0,-1.62028 1.300692,-2.9191 2.920961,-2.9191 z"
       id="path4557"
       inkscape:connector-curvature="0" />
  </g>
</svg>
