<svg width="12" height="12" viewBox="0 0 12 12" fill="none" xmlns="http://www.w3.org/2000/svg">
<g clip-path="url(#clip0)">
<path d="M6.70306 6.00361L11.847 0.859703C12.0455 0.667963 12.051 0.351599 11.8593 0.153066C11.6675 -0.0454671 11.3512 -0.0509722 11.1526 0.140767C11.1485 0.144779 11.1444 0.148878 11.1403 0.153066L5.99639 5.29697L0.85248 0.153037C0.653946 -0.0387029 0.337582 -0.0331979 0.145842 0.165335C-0.0412125 0.359007 -0.0412125 0.666031 0.145842 0.859703L5.28975 6.00361L0.145842 11.1475C-0.0492651 11.3427 -0.0492651 11.659 0.145842 11.8542C0.340979 12.0492 0.657343 12.0492 0.85248 11.8542L5.99639 6.71025L11.1403 11.8542C11.3388 12.0459 11.6552 12.0404 11.8469 11.8419C12.034 11.6482 12.034 11.3412 11.8469 11.1475L6.70306 6.00361Z" fill="#222222"/>
</g>
<defs>
<clipPath id="clip0">
<rect width="12" height="12" fill="white"/>
</clipPath>
</defs>
</svg>
